<?xml version="1.0" encoding="UTF-8" standalone="no"?>
<!DOCTYPE svg PUBLIC "-//W3C//DTD SVG 1.1//EN"
 "http://www.w3.org/Graphics/SVG/1.1/DTD/svg11.dtd">
<!-- Generated by graphviz version 2.42.4 (0)
 -->
<!-- Title: tree_stack Pages: 1 -->
<svg width="1018pt" height="711pt"
 viewBox="0.00 0.00 1018.30 710.80" xmlns="http://www.w3.org/2000/svg" xmlns:xlink="http://www.w3.org/1999/xlink">
<g id="graph0" class="graph" transform="scale(1 1) rotate(0) translate(14.4 696.4)">
<title>tree_stack</title>
<polygon fill="white" stroke="transparent" points="-14.4,14.4 -14.4,-696.4 1003.9,-696.4 1003.9,14.4 -14.4,14.4"/>
<!-- candidates -->
<g id="node1" class="node">
<title>candidates</title>
<path fill="white" stroke="black" d="M481.5,-682C481.5,-682 309.5,-682 309.5,-682 303.5,-682 297.5,-676 297.5,-670 297.5,-670 297.5,-658 297.5,-658 297.5,-652 303.5,-646 309.5,-646 309.5,-646 481.5,-646 481.5,-646 487.5,-646 493.5,-652 493.5,-658 493.5,-658 493.5,-670 493.5,-670 493.5,-676 487.5,-682 481.5,-682"/>
<text text-anchor="middle" x="395.5" y="-667.6" font-family="Helvetica,sans-Serif" font-size="10.50">Searched frames</text>
<text text-anchor="middle" x="395.5" y="-655.6" font-family="Helvetica,sans-Serif" font-size="10.50">85 physical/validity features each</text>
</g>
<!-- contact -->
<g id="node2" class="node">
<title>contact</title>
<path fill="white" stroke="black" d="M469.5,-613C469.5,-613 321.5,-613 321.5,-613 315.5,-613 309.5,-607 309.5,-601 309.5,-601 309.5,-589 309.5,-589 309.5,-583 315.5,-577 321.5,-577 321.5,-577 469.5,-577 469.5,-577 475.5,-577 481.5,-583 481.5,-589 481.5,-589 481.5,-601 481.5,-601 481.5,-607 475.5,-613 469.5,-613"/>
<text text-anchor="middle" x="395.5" y="-598.6" font-family="Helvetica,sans-Serif" font-size="10.50">1. Contact tree</text>
<text text-anchor="middle" x="395.5" y="-586.6" font-family="Helvetica,sans-Serif" font-size="10.50">score every candidate frame</text>
</g>
<!-- candidates&#45;&gt;contact -->
<g id="edge1" class="edge">
<title>candidates&#45;&gt;contact</title>
<path fill="none" stroke="black" d="M395.5,-645.75C395.5,-639 395.5,-631.09 395.5,-623.59"/>
<polygon fill="black" stroke="black" points="399,-623.43 395.5,-613.43 392,-623.43 399,-623.43"/>
</g>
<!-- initial -->
<g id="node3" class="node">
<title>initial</title>
<path fill="white" stroke="black" d="M185,-492C185,-492 12,-492 12,-492 6,-492 0,-486 0,-480 0,-480 0,-468 0,-468 0,-462 6,-456 12,-456 12,-456 185,-456 185,-456 191,-456 197,-462 197,-468 197,-468 197,-480 197,-480 197,-486 191,-492 185,-492"/>
<text text-anchor="middle" x="98.5" y="-477.6" font-family="Helvetica,sans-Serif" font-size="10.50">Initial contacts</text>
<text text-anchor="middle" x="98.5" y="-465.6" font-family="Helvetica,sans-Serif" font-size="10.50">score ≥ 0.9 + nearby suppression</text>
</g>
<!-- contact&#45;&gt;initial -->
<g id="edge2" class="edge">
<title>contact&#45;&gt;initial</title>
<path fill="none" stroke="black" d="M352.95,-576.95C299.58,-555.57 208.1,-518.92 150.6,-495.87"/>
<polygon fill="black" stroke="black" points="151.56,-492.49 140.97,-492.02 148.95,-498.99 151.56,-492.49"/>
</g>
<!-- pool -->
<g id="node4" class="node">
<title>pool</title>
<path fill="white" stroke="black" d="M609,-544C609,-544 436,-544 436,-544 430,-544 424,-538 424,-532 424,-532 424,-520 424,-520 424,-514 430,-508 436,-508 436,-508 609,-508 609,-508 615,-508 621,-514 621,-520 621,-520 621,-532 621,-532 621,-538 615,-544 609,-544"/>
<text text-anchor="middle" x="522.5" y="-529.6" font-family="Helvetica,sans-Serif" font-size="10.50">Candidate pool remains available</text>
<text text-anchor="middle" x="522.5" y="-517.6" font-family="Helvetica,sans-Serif" font-size="10.50">including lower&#45;scoring rows</text>
</g>
<!-- contact&#45;&gt;pool -->
<g id="edge3" class="edge">
<title>contact&#45;&gt;pool</title>
<path fill="none" stroke="black" d="M427.88,-576.92C444,-568.41 463.68,-558.03 480.9,-548.94"/>
<polygon fill="black" stroke="black" points="482.97,-551.81 490.18,-544.05 479.71,-545.62 482.97,-551.81"/>
</g>
<!-- whole -->
<g id="node8" class="node">
<title>whole</title>
<path fill="white" stroke="black" d="M295.5,-336C295.5,-336 149.5,-336 149.5,-336 143.5,-336 137.5,-330 137.5,-324 137.5,-324 137.5,-312 137.5,-312 137.5,-306 143.5,-300 149.5,-300 149.5,-300 295.5,-300 295.5,-300 301.5,-300 307.5,-306 307.5,-312 307.5,-312 307.5,-324 307.5,-324 307.5,-330 301.5,-336 295.5,-336"/>
<text text-anchor="middle" x="222.5" y="-321.6" font-family="Helvetica,sans-Serif" font-size="10.50">4. Whole&#45;sequence chooser</text>
<text text-anchor="middle" x="222.5" y="-309.6" font-family="Helvetica,sans-Serif" font-size="10.50">keep · serve repair · deletion</text>
</g>
<!-- initial&#45;&gt;whole -->
<g id="edge7" class="edge">
<title>initial&#45;&gt;whole</title>
<path fill="none" stroke="black" d="M37.27,-455.91C30.67,-451.72 24.81,-446.5 20.5,-440 11.66,-426.66 11.65,-417.33 20.5,-404 44.56,-367.77 87.42,-346.94 127.49,-334.99"/>
<polygon fill="black" stroke="black" points="128.65,-338.3 137.33,-332.21 126.75,-331.56 128.65,-338.3"/>
</g>
<!-- serve1 -->
<g id="node5" class="node">
<title>serve1</title>
<path fill="white" stroke="black" d="M509.5,-440C509.5,-440 319.5,-440 319.5,-440 313.5,-440 307.5,-434 307.5,-428 307.5,-428 307.5,-416 307.5,-416 307.5,-410 313.5,-404 319.5,-404 319.5,-404 509.5,-404 509.5,-404 515.5,-404 521.5,-410 521.5,-416 521.5,-416 521.5,-428 521.5,-428 521.5,-434 515.5,-440 509.5,-440"/>
<text text-anchor="middle" x="414.5" y="-425.6" font-family="Helvetica,sans-Serif" font-size="10.50">2a. Serve&#45;summary tree</text>
<text text-anchor="middle" x="414.5" y="-413.6" font-family="Helvetica,sans-Serif" font-size="10.50">earlier serve timing + scores + sides</text>
</g>
<!-- pool&#45;&gt;serve1 -->
<g id="edge4" class="edge">
<title>pool&#45;&gt;serve1</title>
<path fill="none" stroke="black" d="M504.18,-507.7C486.54,-491.04 459.71,-465.7 439.99,-447.07"/>
<polygon fill="black" stroke="black" points="442.22,-444.37 432.55,-440.05 437.42,-449.46 442.22,-444.37"/>
</g>
<!-- serve2 -->
<g id="node6" class="node">
<title>serve2</title>
<path fill="white" stroke="black" d="M270,-440C270,-440 45,-440 45,-440 39,-440 33,-434 33,-428 33,-428 33,-416 33,-416 33,-410 39,-404 45,-404 45,-404 270,-404 270,-404 276,-404 282,-410 282,-416 282,-416 282,-428 282,-428 282,-434 276,-440 270,-440"/>
<text text-anchor="middle" x="157.5" y="-425.6" font-family="Helvetica,sans-Serif" font-size="10.50">2b. Serve&#45;physical tree</text>
<text text-anchor="middle" x="157.5" y="-413.6" font-family="Helvetica,sans-Serif" font-size="10.50">serve summary + physical contact features</text>
</g>
<!-- pool&#45;&gt;serve2 -->
<g id="edge5" class="edge">
<title>pool&#45;&gt;serve2</title>
<path fill="none" stroke="black" d="M461.41,-507.93C397.09,-489.95 295.96,-461.69 228.23,-442.77"/>
<polygon fill="black" stroke="black" points="229.06,-439.36 218.49,-440.04 227.18,-446.11 229.06,-439.36"/>
</g>
<!-- insertion -->
<g id="node7" class="node">
<title>insertion</title>
<path fill="white" stroke="black" d="M787.5,-388C787.5,-388 589.5,-388 589.5,-388 583.5,-388 577.5,-382 577.5,-376 577.5,-376 577.5,-364 577.5,-364 577.5,-358 583.5,-352 589.5,-352 589.5,-352 787.5,-352 787.5,-352 793.5,-352 799.5,-358 799.5,-364 799.5,-364 799.5,-376 799.5,-376 799.5,-382 793.5,-388 787.5,-388"/>
<text text-anchor="middle" x="688.5" y="-373.6" font-family="Helvetica,sans-Serif" font-size="10.50">3. Insertion tree</text>
<text text-anchor="middle" x="688.5" y="-361.6" font-family="Helvetica,sans-Serif" font-size="10.50">local evidence for one missed later hit</text>
</g>
<!-- pool&#45;&gt;insertion -->
<g id="edge6" class="edge">
<title>pool&#45;&gt;insertion</title>
<path fill="none" stroke="black" d="M555.29,-507.91C563.2,-503.19 571.41,-497.77 578.5,-492 614.28,-462.91 648.93,-422.02 669.49,-396.02"/>
<polygon fill="black" stroke="black" points="672.25,-398.17 675.65,-388.14 666.74,-393.86 672.25,-398.17"/>
</g>
<!-- later -->
<g id="node9" class="node">
<title>later</title>
<path fill="white" stroke="black" d="M627,-267C627,-267 492,-267 492,-267 486,-267 480,-261 480,-255 480,-255 480,-231 480,-231 480,-225 486,-219 492,-219 492,-219 627,-219 627,-219 633,-219 639,-225 639,-231 639,-231 639,-255 639,-255 639,-261 633,-267 627,-267"/>
<text text-anchor="middle" x="559.5" y="-252.6" font-family="Helvetica,sans-Serif" font-size="10.50">5. Later&#45;contact chooser</text>
<text text-anchor="middle" x="559.5" y="-240.6" font-family="Helvetica,sans-Serif" font-size="10.50">may add one later contact</text>
<text text-anchor="middle" x="559.5" y="-228.6" font-family="Helvetica,sans-Serif" font-size="10.50">needs +0.05 margin</text>
</g>
<!-- pool&#45;&gt;later -->
<g id="edge11" class="edge">
<title>pool&#45;&gt;later</title>
<path fill="none" stroke="black" d="M524.76,-507.85C530.77,-462.21 547.23,-337.2 555.14,-277.11"/>
<polygon fill="black" stroke="black" points="558.63,-277.39 556.47,-267.02 551.69,-276.48 558.63,-277.39"/>
</g>
<!-- confidence -->
<g id="node12" class="node">
<title>confidence</title>
<path fill="white" stroke="black" d="M837.5,-36C837.5,-36 643.5,-36 643.5,-36 637.5,-36 631.5,-30 631.5,-24 631.5,-24 631.5,-12 631.5,-12 631.5,-6 637.5,0 643.5,0 643.5,0 837.5,0 837.5,0 843.5,0 849.5,-6 849.5,-12 849.5,-12 849.5,-24 849.5,-24 849.5,-30 843.5,-36 837.5,-36"/>
<text text-anchor="middle" x="740.5" y="-21.6" font-family="Helvetica,sans-Serif" font-size="10.50">7. Rally&#45;confidence tree</text>
<text text-anchor="middle" x="740.5" y="-9.6" font-family="Helvetica,sans-Serif" font-size="10.50">review score only; does not edit result</text>
</g>
<!-- pool&#45;&gt;confidence -->
<g id="edge16" class="edge">
<title>pool&#45;&gt;confidence</title>
<path fill="none" stroke="black" d="M621.14,-510.05C706.9,-494.17 817.5,-465.47 817.5,-423 817.5,-423 817.5,-423 817.5,-86 817.5,-67.16 804.22,-52.41 788.69,-41.61"/>
<polygon fill="black" stroke="black" points="790.22,-38.43 779.9,-36.01 786.46,-44.34 790.22,-38.43"/>
<text text-anchor="middle" x="903.5" y="-240.8" font-family="Helvetica,sans-Serif" font-size="9.00">discarded candidates + gap evidence</text>
</g>
<!-- serve1&#45;&gt;whole -->
<g id="edge8" class="edge">
<title>serve1&#45;&gt;whole</title>
<path fill="none" stroke="black" d="M382.36,-403.93C349.83,-386.64 299.38,-359.84 263.88,-340.98"/>
<polygon fill="black" stroke="black" points="265.21,-337.73 254.74,-336.13 261.93,-343.91 265.21,-337.73"/>
</g>
<!-- serve2&#45;&gt;whole -->
<g id="edge9" class="edge">
<title>serve2&#45;&gt;whole</title>
<path fill="none" stroke="black" d="M168.53,-403.7C178.86,-387.48 194.44,-363.04 206.21,-344.57"/>
<polygon fill="black" stroke="black" points="209.21,-346.36 211.64,-336.05 203.31,-342.6 209.21,-346.36"/>
</g>
<!-- scored -->
<g id="node10" class="node">
<title>scored</title>
<path fill="white" stroke="black" d="M733.5,-186C733.5,-186 593.5,-186 593.5,-186 587.5,-186 581.5,-180 581.5,-174 581.5,-174 581.5,-150 581.5,-150 581.5,-144 587.5,-138 593.5,-138 593.5,-138 733.5,-138 733.5,-138 739.5,-138 745.5,-144 745.5,-150 745.5,-150 745.5,-174 745.5,-174 745.5,-180 739.5,-186 733.5,-186"/>
<text text-anchor="middle" x="663.5" y="-171.6" font-family="Helvetica,sans-Serif" font-size="10.50">6. Scored&#45;insertion chooser</text>
<text text-anchor="middle" x="663.5" y="-159.6" font-family="Helvetica,sans-Serif" font-size="10.50">adds insertion&#45;tree score</text>
<text text-anchor="middle" x="663.5" y="-147.6" font-family="Helvetica,sans-Serif" font-size="10.50">needs +0.05 margin</text>
</g>
<!-- insertion&#45;&gt;scored -->
<g id="edge13" class="edge">
<title>insertion&#45;&gt;scored</title>
<path fill="none" stroke="black" d="M686.41,-351.79C682.26,-317.59 672.91,-240.57 667.53,-196.19"/>
<polygon fill="black" stroke="black" points="670.99,-195.69 666.31,-186.19 664.04,-196.54 670.99,-195.69"/>
</g>
<!-- whole&#45;&gt;later -->
<g id="edge10" class="edge">
<title>whole&#45;&gt;later</title>
<path fill="none" stroke="black" d="M301.09,-299.98C351.61,-289.03 417.38,-274.79 469.93,-263.4"/>
<polygon fill="black" stroke="black" points="470.88,-266.78 479.91,-261.24 469.4,-259.94 470.88,-266.78"/>
</g>
<!-- later&#45;&gt;scored -->
<g id="edge12" class="edge">
<title>later&#45;&gt;scored</title>
<path fill="none" stroke="black" d="M589.86,-218.94C600.76,-210.66 613.21,-201.2 624.73,-192.45"/>
<polygon fill="black" stroke="black" points="627.08,-195.06 632.92,-186.23 622.84,-189.49 627.08,-195.06"/>
</g>
<!-- finish -->
<g id="node11" class="node">
<title>finish</title>
<path fill="white" stroke="black" d="M767,-105C767,-105 560,-105 560,-105 554,-105 548,-99 548,-93 548,-93 548,-81 548,-81 548,-75 554,-69 560,-69 560,-69 767,-69 767,-69 773,-69 779,-75 779,-81 779,-81 779,-93 779,-93 779,-99 773,-105 767,-105"/>
<text text-anchor="middle" x="663.5" y="-90.6" font-family="Helvetica,sans-Serif" font-size="10.50">Rule&#45;based finish</text>
<text text-anchor="middle" x="663.5" y="-78.6" font-family="Helvetica,sans-Serif" font-size="10.50">boundary widening · Top/Bot alternation</text>
</g>
<!-- scored&#45;&gt;finish -->
<g id="edge14" class="edge">
<title>scored&#45;&gt;finish</title>
<path fill="none" stroke="black" d="M663.5,-137.9C663.5,-130.83 663.5,-122.98 663.5,-115.64"/>
<polygon fill="black" stroke="black" points="667,-115.39 663.5,-105.39 660,-115.39 667,-115.39"/>
</g>
<!-- finish&#45;&gt;confidence -->
<g id="edge15" class="edge">
<title>finish&#45;&gt;confidence</title>
<path fill="none" stroke="black" d="M683.33,-68.75C692.4,-60.85 703.3,-51.37 713.13,-42.81"/>
<polygon fill="black" stroke="black" points="715.49,-45.4 720.74,-36.2 710.9,-40.12 715.49,-45.4"/>
</g>
</g>
</svg>
